<?xml version="1.0" encoding="UTF-8" standalone="no"?>
<!DOCTYPE svg PUBLIC "-//W3C//DTD SVG 1.1//EN" "http://www.w3.org/Graphics/SVG/1.1/DTD/svg11.dtd">
<svg width="100%" height="100%" viewBox="0 0 180 201" version="1.1" xmlns="http://www.w3.org/2000/svg" xmlns:xlink="http://www.w3.org/1999/xlink" xml:space="preserve" xmlns:serif="http://www.serif.com/" style="fill-rule:evenodd;clip-rule:evenodd;stroke-linejoin:round;stroke-miterlimit:2;">
    <g transform="matrix(1,0,0,1,0,-0.000344)">
        <g transform="matrix(18.909782,0,0,19.338553,0,0.000344)">
            <path d="M4.733,10L4.766,10.001C5.168,10.008 5.505,9.618 5.282,9.146C5.258,9.511 5.097,9.708 4.757,9.708L4.709,9.708C4.369,9.708 4.208,9.511 4.184,9.146C3.961,9.618 4.298,10.008 4.7,10.001L4.733,10ZM4.733,9.42L4.759,9.421C5.058,9.429 5.121,9.126 5.047,8.944C5,9.127 4.861,9.22 4.733,9.19C4.604,9.219 4.466,9.126 4.419,8.944C4.345,9.127 4.408,9.429 4.707,9.421L4.733,9.42ZM4.637,8.517L4.826,8.517C5.767,8.558 6.965,8.881 7.458,8.69C7.797,8.558 8.346,8.147 8.601,8.509C8.678,8.618 8.367,8.891 8.36,8.569C8.234,8.309 7.964,8.697 8.16,8.903C7.447,9.609 5.506,8.804 5.321,8.752C5.268,8.737 5.239,8.794 5.28,8.868C5.348,8.989 5.556,9.165 5.606,9.351C5.708,9.726 5.406,10.327 4.805,10.343C4.78,10.344 4.756,10.343 4.731,10.342L4.658,10.343C4.057,10.326 3.755,9.725 3.857,9.351C3.907,9.165 4.115,8.989 4.183,8.868C4.225,8.793 4.195,8.737 4.142,8.752C3.957,8.805 2.017,9.609 1.303,8.903C1.499,8.697 1.229,8.309 1.103,8.569C1.097,8.891 0.785,8.619 0.862,8.509C1.118,8.147 1.666,8.559 2.005,8.69C2.499,8.882 3.697,8.559 4.637,8.517ZM4.733,7.403C4.68,7.396 4.62,7.418 4.616,7.469C4.555,7.981 4.609,7.905 4.433,8.12C4.182,8.424 3.937,8.398 3.542,8.42C3.169,8.44 2.873,8.466 2.809,8.305C2.775,8.22 2.984,7.585 3.561,7.468C3.766,7.426 4.145,7.529 4.144,7.407C4.144,7.2 3.575,7.262 3.396,7.308C2.771,7.469 2.242,7.724 1.756,8.43C2.677,8.909 3.666,8.439 4.707,8.385L4.732,8.387L4.757,8.385C5.798,8.439 6.788,8.909 7.708,8.43C7.221,7.724 6.693,7.469 6.068,7.308C5.889,7.262 5.321,7.2 5.32,7.407C5.32,7.529 5.699,7.427 5.904,7.468C6.481,7.585 6.69,8.22 6.656,8.305C6.593,8.466 6.296,8.44 5.923,8.42C5.528,8.398 5.283,8.425 5.032,8.12C4.855,7.906 4.91,7.981 4.849,7.469C4.845,7.418 4.784,7.395 4.732,7.403L4.733,7.403ZM4.733,4.345C4.706,4.329 4.681,4.275 4.68,4.186C4.671,3.767 4.562,3.321 4.604,2.833C4.621,2.661 4.675,2.565 4.733,2.542C4.791,2.565 4.845,2.661 4.862,2.833C4.904,3.321 4.795,3.767 4.786,4.186C4.784,4.275 4.76,4.329 4.733,4.345ZM4.733,0.001C4.106,0.472 3.113,0.575 3.13,1.789C3.12,2.27 3.344,2.54 4.182,2.532C4.433,2.53 4.434,3.39 4.426,3.767C4.269,3.499 4.121,3.317 3.839,3.103C3.193,2.539 2.887,2.419 2.887,1.729C2.887,1.205 3.016,1.038 3.291,0.686C2.325,0.843 0.934,1.672 1.957,2.672C2.41,3.112 3.136,2.757 3.632,3.173C3.915,3.379 4.453,3.999 4.453,4.425L4.467,4.676L4.423,5.802C4.418,5.868 4.335,5.855 4.334,5.795C4.334,4.579 3.685,3.716 2.551,3.716C2.132,3.716 1.892,3.803 1.45,3.786C1.033,3.791 0.542,3.459 0.526,3.108C0.062,3.554 0.131,4.638 0.984,4.548C1.532,4.432 1.593,3.903 2.382,3.903C2.878,3.9 3.281,3.912 3.671,4.32C3.842,4.499 3.989,4.668 4.084,5.285C4.093,5.426 4.035,5.42 4.001,5.343C3.708,4.679 3.404,4.518 2.865,4.495C1.998,4.49 1.251,5.764 0.621,5.764C0.333,5.764 0.167,5.65 0,5.424C0.015,5.952 0.088,6.443 0.657,6.448C1.006,6.453 1.29,6.024 1.478,5.715C1.805,5.179 2.431,4.552 3.116,4.694C3.717,4.852 4.065,5.484 4.065,6.416C4.065,6.602 3.99,6.93 3.765,6.93C3.55,6.93 3.473,6.878 3.473,6.669C3.473,6.283 3.607,5.37 3.168,5.37C2.928,5.361 2.824,5.501 2.816,5.684C2.817,5.886 3.217,6.058 3.145,5.742C3.123,5.645 3.281,5.605 3.29,5.753C3.282,6.069 3.004,6.033 3.033,6.715C3.033,7.24 3.449,7.132 3.994,7.135C4.441,7.189 4.283,7.667 3.969,7.669C3.814,7.675 3.764,7.582 3.661,7.567C3.575,7.555 3.49,7.58 3.471,7.641C3.423,7.9 3.794,7.972 4.087,7.972C4.297,7.983 4.006,8.15 3.862,8.155C3.763,8.158 3.767,8.259 3.857,8.261C4.369,8.247 4.403,7.896 4.504,7.424C4.513,7.302 4.591,7.249 4.733,7.241C4.875,7.248 4.953,7.301 4.962,7.424C5.062,7.896 5.097,8.247 5.609,8.261C5.699,8.259 5.704,8.158 5.604,8.155C5.46,8.15 5.17,7.983 5.379,7.972C5.673,7.972 6.043,7.9 5.995,7.641C5.976,7.579 5.891,7.555 5.805,7.567C5.702,7.582 5.652,7.675 5.497,7.669C5.183,7.667 5.025,7.189 5.472,7.135C6.017,7.132 6.433,7.24 6.433,6.715C6.462,6.033 6.184,6.069 6.176,5.753C6.185,5.606 6.343,5.645 6.321,5.742C6.248,6.058 6.649,5.887 6.65,5.684C6.642,5.501 6.537,5.361 6.298,5.37C5.859,5.37 5.993,6.283 5.993,6.669C5.993,6.879 5.916,6.93 5.701,6.93C5.477,6.93 5.401,6.602 5.401,6.416C5.401,5.484 5.749,4.851 6.35,4.694C7.035,4.552 7.661,5.179 7.988,5.715C8.177,6.024 8.46,6.453 8.81,6.448C9.379,6.443 9.452,5.952 9.467,5.424C9.3,5.65 9.134,5.763 8.846,5.763C8.216,5.763 7.469,4.489 6.602,4.495C6.063,4.518 5.758,4.679 5.465,5.343C5.431,5.42 5.373,5.426 5.382,5.285C5.478,4.668 5.624,4.499 5.795,4.32C6.186,3.912 6.589,3.9 7.085,3.903C7.873,3.903 7.934,4.432 8.483,4.548C9.336,4.638 9.405,3.553 8.941,3.108C8.925,3.459 8.434,3.792 8.017,3.786C7.576,3.804 7.335,3.716 6.916,3.716C5.782,3.716 5.134,4.578 5.134,5.795C5.133,5.855 5.049,5.868 5.044,5.802L5,4.676L5.014,4.425C5.014,3.999 5.551,3.378 5.835,3.173C6.331,2.757 7.057,3.113 7.51,2.672C8.532,1.672 7.142,0.843 6.176,0.686C6.451,1.038 6.58,1.205 6.58,1.729C6.58,2.419 6.274,2.538 5.628,3.103C5.345,3.317 5.197,3.499 5.04,3.767C5.033,3.39 5.033,2.529 5.284,2.532C6.123,2.54 6.346,2.271 6.336,1.789C6.353,0.574 5.36,0.471 4.733,0L4.733,0.001ZM4.359,0.763C4.132,0.826 4.013,1.193 4.032,1.574C4.032,1.776 4.202,2.044 4.323,2.128C4.241,1.907 4.118,1.383 4.36,0.763L4.359,0.763ZM4.607,5.927C4.607,5.808 4.485,5.791 4.48,5.97C4.497,6.515 4.248,6.494 4.232,6.705C4.232,6.861 4.262,6.971 4.463,6.95C4.64,6.95 4.609,6.615 4.609,6.46L4.607,5.927ZM2.486,3.122C2.34,3.359 1.878,3.57 1.581,3.57C0.499,3.57 0.541,2.398 1.376,1.846C1.354,2.644 1.758,3.12 2.486,3.122ZM1.317,4.686C1.186,5.206 0.97,5.531 0.527,5.531C-0.064,5.473 -0.033,4.62 0.093,4.292C0.389,4.826 0.874,4.861 1.316,4.686L1.317,4.686ZM3.762,6.553C3.87,6.542 3.911,6.656 3.871,6.735C3.831,6.814 3.718,6.804 3.67,6.728C3.633,6.669 3.656,6.557 3.762,6.553ZM0.845,7.208C0.599,7.208 0.297,6.818 0.263,6.574C0.415,6.64 0.601,6.712 0.788,6.683C1,6.641 1.011,6.62 1.123,6.468C1.321,6.782 1.275,7.208 0.845,7.208ZM1.272,7.739C0.949,7.838 0.71,7.439 0.65,7.321C0.862,7.452 1.272,7.445 1.355,7.212C1.438,7.434 1.483,7.64 1.272,7.739ZM1.388,8.152C1.25,8.128 1.167,8.065 1.14,7.963C1.309,7.989 1.486,7.939 1.552,7.798C1.639,7.951 1.617,8.192 1.388,8.152ZM2.957,7.709C2.811,7.85 2.671,8.115 2.556,8.285C2.482,8.394 2.367,8.356 2.397,8.293C2.489,8.1 2.752,7.773 2.957,7.71L2.957,7.709ZM2.841,7.617L2.49,7.973C2.258,8.249 2.143,8.41 2.078,8.249C2.065,8.217 2.193,8.025 2.382,7.886C2.531,7.777 2.658,7.669 2.841,7.616L2.841,7.617ZM3.838,10.153C3.62,10.269 3.066,10.136 2.985,9.867C3.307,9.71 3.465,9.586 3.706,9.396C3.688,9.656 3.733,9.916 3.838,10.154L3.838,10.153ZM2.072,9.403C2.234,9.381 2.609,9.405 2.846,9.329C3.233,9.206 3.445,9.174 3.806,9.022C3.667,9.283 3.271,9.518 3.142,9.606C2.808,9.893 2.138,9.871 2.071,9.403L2.072,9.403ZM5.107,0.762C5.334,0.825 5.452,1.192 5.434,1.573C5.434,1.775 5.264,2.043 5.143,2.127C5.225,1.906 5.348,1.382 5.106,0.762L5.107,0.762ZM4.859,5.926C4.859,5.807 4.981,5.79 4.986,5.969C4.969,6.514 5.218,6.493 5.234,6.704C5.234,6.86 5.204,6.97 5.003,6.949C4.826,6.949 4.857,6.614 4.857,6.459L4.859,5.926ZM6.98,3.121C7.126,3.358 7.588,3.569 7.885,3.569C8.967,3.569 8.925,2.397 8.09,1.845C8.112,2.643 7.708,3.119 6.98,3.121ZM8.149,4.685C8.28,5.205 8.496,5.53 8.939,5.53C9.53,5.472 9.499,4.619 9.373,4.291C9.077,4.825 8.591,4.86 8.15,4.685L8.149,4.685ZM5.702,6.553C5.594,6.542 5.553,6.656 5.593,6.735C5.633,6.814 5.746,6.804 5.794,6.728C5.831,6.669 5.808,6.557 5.702,6.553ZM8.619,7.208C8.865,7.208 9.167,6.818 9.201,6.574C9.049,6.64 8.863,6.712 8.676,6.683C8.464,6.641 8.453,6.62 8.341,6.468C8.143,6.782 8.189,7.208 8.619,7.208ZM8.192,7.739C8.515,7.838 8.754,7.439 8.814,7.321C8.602,7.452 8.192,7.445 8.109,7.212C8.026,7.434 7.981,7.64 8.192,7.739ZM8.076,8.152C8.214,8.128 8.298,8.065 8.324,7.963C8.155,7.989 7.978,7.939 7.912,7.798C7.825,7.951 7.847,8.192 8.076,8.152ZM6.507,7.709C6.653,7.85 6.793,8.115 6.908,8.285C6.982,8.394 7.097,8.356 7.067,8.293C6.975,8.1 6.712,7.773 6.507,7.71L6.507,7.709ZM6.623,7.617L6.974,7.973C7.206,8.249 7.32,8.41 7.386,8.249C7.399,8.217 7.271,8.025 7.082,7.886C6.933,7.777 6.806,7.669 6.623,7.616L6.623,7.617ZM5.626,10.153C5.844,10.269 6.398,10.136 6.48,9.867C6.158,9.71 6,9.586 5.759,9.396C5.768,9.755 5.73,9.871 5.627,10.154L5.626,10.153ZM7.392,9.403C7.23,9.381 6.855,9.405 6.618,9.329C6.231,9.206 6.019,9.174 5.658,9.022C5.797,9.283 6.193,9.518 6.322,9.606C6.656,9.893 7.326,9.871 7.392,9.403"/>
        </g>
    </g>
</svg>
